<svg width="28" height="28" viewBox="0 0 28 28" fill="none" xmlns="http://www.w3.org/2000/svg">
<path d="M15.4266 2.00861L17.3412 7.90122C17.6759 8.93128 18.6358 9.62868 19.7189 9.62868H25.9147C27.3678 9.62868 27.972 11.4881 26.7964 12.3422L21.7838 15.984C20.9076 16.6206 20.541 17.7491 20.8757 18.7791L22.7903 24.6717C23.2393 26.0537 21.6576 27.2029 20.482 26.3488L15.4695 22.7069C14.5932 22.0703 13.4068 22.0703 12.5305 22.7069L7.51798 26.3488C6.34241 27.2029 4.76069 26.0537 5.20972 24.6717L7.12435 18.7791C7.45903 17.7491 7.09239 16.6206 6.21617 15.984L1.20361 12.3422C0.0280433 11.4881 0.632205 9.62868 2.08529 9.62868H8.28115C9.36422 9.62868 10.3241 8.93128 10.6588 7.90122L12.5734 2.00861C13.0224 0.626643 14.9776 0.626641 15.4266 2.00861Z" stroke="#607175"/>
</svg>
